<?xml version="1.0" encoding="UTF-8"?>
<!DOCTYPE svg PUBLIC "-//W3C//DTD SVG 1.1//EN"
 "http://www.w3.org/Graphics/SVG/1.1/DTD/svg11.dtd">
<svg xmlns="http://www.w3.org/2000/svg" version="1.1"
     width="180mm" height="25mm"
     viewBox="0 0 100 1" preserveAspectRatio="none"
     shape-rendering="crispEdges" stroke="none">
<rect width="1" height=".96" x="0" y="0" fill="#364945" />
<rect width="1" height=".96" x="1" y="0" fill="#374B46" />
<rect width="1" height=".96" x="2" y="0" fill="#374C47" />
<rect width="1" height=".96" x="3" y="0" fill="#384E48" />
<rect width="1" height=".96" x="4" y="0" fill="#394F49" />
<rect width="1" height=".96" x="5" y="0" fill="#39514A" />
<rect width="1" height=".96" x="6" y="0" fill="#3A524A" />
<rect width="1" height=".96" x="7" y="0" fill="#3B544B" />
<rect width="1" height=".96" x="8" y="0" fill="#3B554C" />
<rect width="1" height=".96" x="9" y="0" fill="#3C574D" />
<rect width="1" height=".96" x="10" y="0" fill="#3D584E" />
<rect width="1" height=".96" x="11" y="0" fill="#3D5A4F" />
<rect width="1" height=".96" x="12" y="0" fill="#3E5B50" />
<rect width="1" height=".96" x="13" y="0" fill="#3F5D51" />
<rect width="1" height=".96" x="14" y="0" fill="#405E51" />
<rect width="1" height=".96" x="15" y="0" fill="#416052" />
<rect width="1" height=".96" x="16" y="0" fill="#426153" />
<rect width="1" height=".96" x="17" y="0" fill="#436354" />
<rect width="1" height=".96" x="18" y="0" fill="#446454" />
<rect width="1" height=".96" x="19" y="0" fill="#456655" />
<rect width="1" height=".96" x="20" y="0" fill="#466756" />
<rect width="1" height=".96" x="21" y="0" fill="#476956" />
<rect width="1" height=".96" x="22" y="0" fill="#486A57" />
<rect width="1" height=".96" x="23" y="0" fill="#496C58" />
<rect width="1" height=".96" x="24" y="0" fill="#4A6D58" />
<rect width="1" height=".96" x="25" y="0" fill="#4B6F59" />
<rect width="1" height=".96" x="26" y="0" fill="#4C705A" />
<rect width="1" height=".96" x="27" y="0" fill="#4E725A" />
<rect width="1" height=".96" x="28" y="0" fill="#4F735B" />
<rect width="1" height=".96" x="29" y="0" fill="#50755B" />
<rect width="1" height=".96" x="30" y="0" fill="#52765C" />
<rect width="1" height=".96" x="31" y="0" fill="#53785C" />
<rect width="1" height=".96" x="32" y="0" fill="#54795D" />
<rect width="1" height=".96" x="33" y="0" fill="#567B5D" />
<rect width="1" height=".96" x="34" y="0" fill="#577C5E" />
<rect width="1" height=".96" x="35" y="0" fill="#597E5E" />
<rect width="1" height=".96" x="36" y="0" fill="#5A7F5F" />
<rect width="1" height=".96" x="37" y="0" fill="#5C815F" />
<rect width="1" height=".96" x="38" y="0" fill="#5D825F" />
<rect width="1" height=".96" x="39" y="0" fill="#5F8460" />
<rect width="1" height=".96" x="40" y="0" fill="#618560" />
<rect width="1" height=".96" x="41" y="0" fill="#628760" />
<rect width="1" height=".96" x="42" y="0" fill="#648861" />
<rect width="1" height=".96" x="43" y="0" fill="#668A61" />
<rect width="1" height=".96" x="44" y="0" fill="#688B61" />
<rect width="1" height=".96" x="45" y="0" fill="#698D62" />
<rect width="1" height=".96" x="46" y="0" fill="#6B8E62" />
<rect width="1" height=".96" x="47" y="0" fill="#6D9062" />
<rect width="1" height=".96" x="48" y="0" fill="#6F9163" />
<rect width="1" height=".96" x="49" y="0" fill="#719263" />
<rect width="1" height=".96" x="50" y="0" fill="#739463" />
<rect width="1" height=".96" x="51" y="0" fill="#759563" />
<rect width="1" height=".96" x="52" y="0" fill="#779764" />
<rect width="1" height=".96" x="53" y="0" fill="#799864" />
<rect width="1" height=".96" x="54" y="0" fill="#7B9A64" />
<rect width="1" height=".96" x="55" y="0" fill="#7D9B64" />
<rect width="1" height=".96" x="56" y="0" fill="#7F9D65" />
<rect width="1" height=".96" x="57" y="0" fill="#819E65" />
<rect width="1" height=".96" x="58" y="0" fill="#849F65" />
<rect width="1" height=".96" x="59" y="0" fill="#86A165" />
<rect width="1" height=".96" x="60" y="0" fill="#88A265" />
<rect width="1" height=".96" x="61" y="0" fill="#8AA466" />
<rect width="1" height=".96" x="62" y="0" fill="#8DA566" />
<rect width="1" height=".96" x="63" y="0" fill="#8FA666" />
<rect width="1" height=".96" x="64" y="0" fill="#91A866" />
<rect width="1" height=".96" x="65" y="0" fill="#94A966" />
<rect width="1" height=".96" x="66" y="0" fill="#96AA66" />
<rect width="1" height=".96" x="67" y="0" fill="#99AC67" />
<rect width="1" height=".96" x="68" y="0" fill="#9BAD67" />
<rect width="1" height=".96" x="69" y="0" fill="#9EAE67" />
<rect width="1" height=".96" x="70" y="0" fill="#A0B067" />
<rect width="1" height=".96" x="71" y="0" fill="#A3B167" />
<rect width="1" height=".96" x="72" y="0" fill="#A5B268" />
<rect width="1" height=".96" x="73" y="0" fill="#A8B468" />
<rect width="1" height=".96" x="74" y="0" fill="#AAB568" />
<rect width="1" height=".96" x="75" y="0" fill="#ADB668" />
<rect width="1" height=".96" x="76" y="0" fill="#B0B868" />
<rect width="1" height=".96" x="77" y="0" fill="#B2B969" />
<rect width="1" height=".96" x="78" y="0" fill="#B5BA69" />
<rect width="1" height=".96" x="79" y="0" fill="#B8BB69" />
<rect width="1" height=".96" x="80" y="0" fill="#BBBD69" />
<rect width="1" height=".96" x="81" y="0" fill="#BDBE6A" />
<rect width="1" height=".96" x="82" y="0" fill="#C0BF6A" />
<rect width="1" height=".96" x="83" y="0" fill="#C3C06A" />
<rect width="1" height=".96" x="84" y="0" fill="#C6C26B" />
<rect width="1" height=".96" x="85" y="0" fill="#C9C36B" />
<rect width="1" height=".96" x="86" y="0" fill="#CCC46B" />
<rect width="1" height=".96" x="87" y="0" fill="#CFC56C" />
<rect width="1" height=".96" x="88" y="0" fill="#D2C76C" />
<rect width="1" height=".96" x="89" y="0" fill="#D5C86C" />
<rect width="1" height=".96" x="90" y="0" fill="#D8C96D" />
<rect width="1" height=".96" x="91" y="0" fill="#DBCA6D" />
<rect width="1" height=".96" x="92" y="0" fill="#DECB6E" />
<rect width="1" height=".96" x="93" y="0" fill="#E1CC6E" />
<rect width="1" height=".96" x="94" y="0" fill="#E4CD6F" />
<rect width="1" height=".96" x="95" y="0" fill="#E7CF6F" />
<rect width="1" height=".96" x="96" y="0" fill="#EAD070" />
<rect width="1" height=".96" x="97" y="0" fill="#EDD170" />
<rect width="1" height=".96" x="98" y="0" fill="#F0D271" />
<rect width="1" height=".96" x="99" y="0" fill="#F4D371" />
</svg>